<svg xmlns="http://www.w3.org/2000/svg" width="62" height="56" viewBox="0 0 62 56" fill="none">
  <path
    d="M50.1202 10.0881C51.2999 11.5125 53.3627 12.3516 54.5699 13.7791C53.705 9.55862 50.49 6.11229 46.6882 5.28864C48.5433 6.70371 48.9436 8.66995 50.1202 10.0881ZM4.42525 20.7863C7.04433 15.0114 10.9531 16.2345 12.6065 10.7322C11.6896 12.4197 7.41107 13.1319 5.42154 17.4576C6.43311 14.8876 5.9258 10.9551 7.63722 8.83406C2.52129 12.6582 4.7003 18.8448 4.42525 20.7863ZM9.16833 34.6367C9.63897 36.8847 8.2515 40.1297 10.4519 43.2324C8.17815 40.6499 3.36172 39.9935 1.3997 36.0672C3.84459 45.6662 10.2624 43.6845 13.1321 45.7684C10.7606 42.3158 12.7012 40.0214 9.16833 34.6367ZM8.43181 40.6592C7.02905 35.2993 9.52895 33.4414 7.61888 28.3014C7.42024 31.1996 5.51322 32.6116 6.79985 37.9003C4.52916 33.4229 1.01768 31.7508 0 28.6729C0.0702905 37.089 6.74484 38.3369 8.43181 40.6592ZM18.682 49.6389C16.7169 46.8831 18.0708 45.3256 12.5392 40.3217C13.7067 42.1486 12.5025 44.4462 16.2249 48.0195C12.582 45.852 7.55776 46.7809 5.13427 43.8671C9.29669 51.9396 16.61 48.6449 18.682 49.6482V49.6389ZM45.3985 48.0195C49.1209 44.4462 47.9168 42.1362 49.0842 40.3217C43.5649 45.3256 44.9065 46.8831 42.9414 49.6389C45.0134 48.6357 52.3267 51.9303 56.4861 43.8671C54.0657 46.784 49.0414 45.852 45.3985 48.0288V48.0195ZM51.1715 43.2231C53.3627 40.1266 51.9844 36.8754 52.4551 34.6274C48.9222 40.0121 50.8628 42.3065 48.4821 45.7745C51.3671 43.6906 57.7605 45.6662 60.2145 36.0734C58.2556 39.9935 53.4453 40.6499 51.1715 43.2324V43.2231ZM42.3516 50.0198C40.3803 49.4821 38.3557 49.1705 36.3158 49.0908C34.439 49.0452 32.5712 49.3669 30.8148 50.0383C29.0583 49.3672 27.1905 49.0455 25.3138 49.0908C23.2738 49.1705 21.2492 49.4821 19.2779 50.0198C15.956 50.9146 13.0863 51.6082 10.5833 50.3294C12.9824 52.4969 15.7787 53.2555 19.8219 52.8066C23.1837 52.4412 25.9066 50.735 29.0789 50.7598H29.2042C27.2095 51.7715 25.4316 53.172 23.9721 54.8812L25.5002 55.0886C25.5002 55.0886 27.1108 51.8095 30.8148 50.9549C34.5188 51.8095 36.1293 55.0886 36.1293 55.0886L37.6574 54.8812C36.1951 53.1807 34.4174 51.7878 32.4253 50.7815H32.5506C35.7229 50.7567 38.4398 52.4628 41.8045 52.8282C45.8478 53.271 48.6472 52.5 51.0462 50.3511C48.5433 51.6175 45.6736 50.9239 42.3516 50.0291V50.0198ZM7.84504 22.4893C6.4759 25.1523 4.34885 25.7623 4.58417 31.2739C3.42896 26.3754 0.684569 24.5609 0.718186 21.4366C-1.18883 29.5802 3.90877 30.5463 5.21678 33.9585C5.02425 29.0693 8.1048 28.0815 7.84504 22.4893ZM9.75816 16.2036C9.28141 16.8786 8.94829 17.1666 7.67695 18.2286C5.76782 19.7623 4.45575 21.9307 3.97294 24.3503C4.10436 21.3653 2.28291 17.0768 3.49313 13.9494C-1.19188 20.6532 3.76207 24.6692 3.93627 27.0968C5.1526 22.4243 7.94589 22.3872 9.75816 16.2036ZM57.6474 24.3503C57.1642 21.9317 55.8534 19.7637 53.9465 18.2286C52.6751 17.1666 52.342 16.8786 51.8653 16.2036C53.6775 22.3965 56.4708 22.4243 57.6719 27.0968C57.8461 24.6692 62.8 20.6532 58.1119 13.9494C59.3344 17.0768 57.516 21.3653 57.6474 24.3503ZM61.6204 28.6853C60.6027 31.7632 57.0912 33.4352 54.8205 37.9251C56.1071 32.624 54.2093 31.212 54.0015 28.3261C52.0914 33.4724 54.6127 35.321 53.1885 40.684C54.8786 38.3369 61.5531 37.089 61.6234 28.6729L61.6204 28.6853ZM53.7875 22.4893C53.5278 28.0815 56.6114 29.0693 56.4158 33.9462C57.7269 30.5401 62.8336 29.5678 60.9144 21.4242C60.9511 24.5485 58.2067 26.3785 57.0606 31.2461C57.2746 25.7623 55.1475 25.1523 53.7875 22.4893ZM11.5093 10.1036C12.692 8.67924 13.0924 6.71919 14.9444 5.30412C11.1426 6.12777 7.91533 9.57411 7.06267 13.7945C8.2515 12.3516 10.3174 11.5125 11.4971 10.0881L11.5093 10.1036ZM49.0292 10.7477C50.6825 16.25 54.5913 15.0269 57.2073 20.8018C56.9353 18.8603 59.1143 12.6736 53.9984 8.84954C55.7098 10.9737 55.2025 14.9031 56.2141 17.4731C54.2185 13.1319 49.9491 12.4197 49.017 10.7322L49.0292 10.7477ZM35.7565 13.8565C34.7541 13.4398 33.7036 13.1537 32.6301 13.005C32.6301 13.2372 32.6301 13.4756 32.6301 13.7109C33.6162 13.8576 34.581 14.1259 35.5028 14.5098C35.6276 14.3104 35.7137 14.0886 35.7565 13.8565V13.8565ZM34.965 7.04432L35.1728 6.85544L34.7755 6.68513L33.7303 6.66346L33.4583 6.85544L32.8471 6.8028V6.95452C33.2073 6.97417 33.5664 7.01241 33.9228 7.06909L34.4332 7.02264L34.965 7.04432ZM32.9388 29.8805C32.9388 29.7009 32.7034 29.5244 32.355 29.3572H32.2909C32.2909 29.5028 32.2909 30.2211 32.2695 30.571C32.7004 30.376 32.9388 30.1654 32.9388 29.8805ZM20.8304 16.411C20.8525 16.2804 20.8821 16.1511 20.9191 16.024C20.7787 16.056 20.635 16.0706 20.4912 16.0673L20.8304 16.411ZM30.8331 47.5612C36.2857 47.5412 41.5234 45.4053 45.4694 41.5926C49.4153 37.78 51.7695 32.5804 52.0478 27.063C52.326 21.5457 50.5073 16.13 46.9655 11.9296C43.4237 7.72926 38.4281 5.06348 33.006 4.48047C33.006 4.52072 33.006 4.56407 32.9815 4.60433C32.9388 4.81488 32.899 5.00377 32.8685 5.17097C37.5493 5.63703 41.9315 7.7133 45.2854 11.0542L42.9322 13.4385L43.0209 13.0173L42.7153 12.8811L42.2935 12.8563L42.3821 12.5807L42.0979 11.6054L41.5111 10.952L39.6775 9.97045L39.5186 10.1408L39.1854 10.2398C39.8121 11.1609 40.1508 12.2517 40.1573 13.3703C40.1573 13.5159 40.1573 13.6552 40.1573 13.7945L41.0741 14.9557L40.6463 15.0548L40.9305 15.4883L40.1267 16.2996L39.8028 15.6803C39.6493 16.1099 39.444 16.5186 39.1916 16.8972L39.3719 17.0644L36.8934 19.5756C36.7436 19.4301 36.5878 19.2907 36.4288 19.1576C36.1905 19.269 35.949 19.3712 35.7015 19.4672L35.9124 19.6344L35.7871 19.7614L35.4814 19.9255L35.3745 20.2351L35.1942 20.0524L34.6716 20.2289L34.8152 20.4612L35.1758 20.3652L35.4112 20.3838L35.4295 20.2537L35.6098 20.1608L35.6648 20.0524L35.9888 19.9596H36.2424C36.2913 20.0029 36.3433 20.0494 36.3891 20.0958L35.3928 21.0557L35.3195 20.9504L34.2926 21.1207L34.0634 21.353L33.8403 21.3808L34.476 20.7615L34.2498 20.647L33.6539 21.452L33.8281 21.4335V21.7431L34.0451 21.8298L34.0879 22.1394L33.7303 22.0682L33.3574 22.1363L32.4406 21.6688C32.4406 21.6688 32.3917 24.1212 32.3673 25.3535C34.5065 26.0781 36.7528 27.1247 36.7528 29.8743C36.761 30.4498 36.6252 31.0181 36.358 31.526C36.0908 32.0339 35.7009 32.4649 35.2247 32.7788L35.1789 32.8098L35.1117 32.8562C34.2498 33.4322 33.1435 33.7418 32.1839 34.0452L32.1564 35.9712C33.6844 36.7391 35.5334 37.857 35.3623 41.0556C35.3409 41.8421 35.0383 42.0588 34.7785 42.13C33.8761 42.3581 32.9558 42.5063 32.028 42.5728C32.028 42.8205 32.028 43.0559 32.028 43.2757C36.0109 42.9981 39.7719 41.3153 42.6572 38.5196L45.1326 41.0277C41.3061 44.764 36.2018 46.8565 30.8876 46.8675C25.5733 46.8784 20.4607 44.807 16.6191 41.0865L19.0946 38.5784C21.9497 41.3191 25.6516 42.9763 29.574 43.2695C29.574 43.0528 29.574 42.8174 29.574 42.5666C25.8326 42.2778 22.3026 40.6961 19.5744 38.0861L20.2345 37.4142L21.1513 37.5194L21.6342 36.9931L22.8994 37.0364L23.0859 36.5936L23.04 36.4047C24.9111 37.8581 27.1411 38.7612 29.4854 39.015C29.4854 38.7425 29.4854 38.5041 29.4854 38.309C26.8897 38.0141 24.4559 36.8832 22.5419 35.0826L25.0204 32.5713C25.6246 33.1178 26.3002 33.5773 27.0282 33.9369C27.0788 33.7056 27.1633 33.4833 27.2788 33.2773C26.6387 32.9575 26.0436 32.5524 25.5094 32.0728L27.994 29.5585C28.3917 29.8808 28.84 30.1331 29.3203 30.3048C29.3203 30.057 29.3203 29.7938 29.3203 29.5492C29.0281 29.4205 28.7529 29.255 28.5013 29.0569L29.2011 28.3478C28.9566 28.2735 28.706 28.193 28.4616 28.1063L27.9909 28.5831C27.7527 28.3146 27.5531 28.0133 27.398 27.6883C26.9733 27.5018 26.5644 27.2802 26.1756 27.0256C25.4524 26.5842 24.8571 25.9572 24.4498 25.208C24.0425 24.4588 23.8377 23.6139 23.856 22.7587C23.8142 21.5908 24.1679 20.4436 24.8584 19.5075L22.3891 17.0056C24.2055 15.2427 26.5155 14.092 29.0025 13.7109C29.0025 13.4694 29.0025 13.231 28.9872 13.005C26.3207 13.3962 23.8422 14.6242 21.9001 16.5163L21.4814 16.1014C21.3867 16.2717 21.2766 16.4854 21.1483 16.7547L21.4111 17.0241C19.2111 19.39 17.9621 22.5029 17.9088 25.753H14.4034C14.4596 21.5549 16.0834 17.5343 18.9479 14.5005L20.0603 15.6307C20.1132 15.6338 20.1663 15.6338 20.2192 15.6307C20.4401 15.6117 20.6551 15.5485 20.8518 15.445L19.4369 14.0113C20.1889 13.2766 21.0075 12.6152 21.8818 12.0358C21.9297 11.8591 21.9878 11.6854 22.0559 11.5156C22.2211 11.2634 22.3996 11.0205 22.5908 10.7879C21.2629 11.5278 20.0379 12.443 18.9479 13.5097L16.4724 11.0016C19.7909 7.71382 24.1106 5.66189 28.7274 5.18026C28.7091 5.09356 28.6969 5.02544 28.6969 5.02544C28.6663 4.86133 28.6296 4.67864 28.596 4.48666C23.1689 5.07048 18.1693 7.74059 14.6268 11.9471C11.0843 16.1537 9.26872 21.5763 9.55386 27.0985C9.839 32.6206 12.2032 37.8217 16.1595 41.6308C20.1159 45.4398 25.3632 47.5667 30.8209 47.5736L30.8331 47.5612ZM35.4509 32.6518V32.6333V32.6518ZM45.7744 11.5589C49.3856 15.3844 51.4236 20.4597 51.4741 25.753H47.9565C47.9253 23.1175 47.298 20.5243 46.1228 18.1729L46.1534 18.111L46.3948 18.241L46.4529 18.0521L45.8417 16.9405L45.099 15.9001L44.2189 15.1725C43.9133 14.7947 43.6076 14.4293 43.2806 14.0763L45.7744 11.5589ZM41.2972 16.1014L42.1377 16.1386L42.3394 16.3832L42.2385 16.7455L43.3968 17.4886L43.626 17.4607L45.1235 19.1947L45.7347 18.978C46.712 21.1011 47.2328 23.4105 47.2627 25.753H43.7604C43.7454 24.8438 43.6358 23.9388 43.4334 23.0529L43.5954 22.833L43.8124 21.7214L43.6474 20.5262L43.2256 19.1514L42.2477 17.7023L42.486 17.8292L42.6052 17.7084L41.8198 17.1697L41.7679 17.3462L42.5533 18.4826L42.9964 19.4115L43.302 20.3404L43.4029 20.9597L43.5649 22.0063L43.2592 22.028C43.2592 22.028 42.92 21.387 42.8161 21.1238L42.972 20.8854L42.6664 20.4519V20.0184L42.4524 19.7459L42.1865 19.78C42.0918 19.6004 41.991 19.4239 41.8809 19.2505L42.0704 19.3465L42.1193 19.2969L42.0185 19.074L42.2477 18.9439L42.1438 18.8139L41.8045 18.9439L41.9298 18.4051L41.7281 18.2875L41.5478 18.7179C41.1664 18.1376 40.7403 17.5889 40.2734 17.0768L41.2972 16.1014ZM40.5943 24.4215L41.2239 24.0747L41.8657 23.9756L42.0062 23.666L42.3638 23.4492L42.5013 23.1396L42.6113 22.6163C42.6633 22.799 42.7091 22.9879 42.7519 23.1768L42.4127 24.2017V24.5485L42.9047 23.8827C43.0103 24.4965 43.0686 25.1177 43.0789 25.7406H40.0228L39.9525 25.4712L40.3101 25.1832L40.3804 25.0098L40.5362 24.8922L40.9519 24.8488L40.9947 24.663L40.5943 24.4215ZM36.3891 21.9846L36.6947 21.9103V21.836L36.3891 21.6223L36.4961 20.9535L36.872 20.5726C37.1069 20.8441 37.3243 21.1306 37.5229 21.4304L37.3915 21.8422L37.0492 21.5945L36.7895 21.6657L36.9178 21.9103H37.0462L36.9025 22.2726L36.8047 22.1271L36.3891 21.9846ZM37.7307 33.7728L36.9728 33.556L36.7467 33.6396L36.3188 33.3083L35.9154 33.1628C36.1141 33.0172 36.3066 32.8531 36.493 32.7045L37.1042 33.1504L37.581 33.4043L37.8163 33.6427L37.7307 33.7728ZM37.3457 20.0803L39.8242 17.5691C40.4036 18.2092 40.9157 18.9086 41.3522 19.6561L41.0466 19.7428L41.0619 20.3033L41.9787 20.8978C42.2084 21.4119 42.4025 21.9417 42.5594 22.4832L42.3974 22.7247L42.0612 22.9414L41.9787 23.4616L41.7495 23.5917L41.557 23.8208L41.3645 23.7496H41.0222L41.2208 23.4771L41.3645 22.768L41.5906 22.6256L40.9519 21.9599L40.4537 22.1302L40.3407 22.6039L40.035 22.9476L39.708 22.6751L39.5919 22.3841L39.7783 22.2664L39.8822 22.4584L40.035 22.3995L39.9678 22.0899H39.7508L39.7355 22.22L39.5919 22.2478L38.8126 21.322L38.5498 21.1207L38.6506 21.0092L38.8829 20.9287L38.669 20.842C38.669 20.842 38.397 20.904 38.3634 20.904L38.5192 21.1021H38.128C37.893 20.7421 37.6315 20.4005 37.3457 20.0803ZM38.6078 33.4414L38.2717 33.1008L38.5284 32.7633L38.8523 32.0945L38.727 31.9087L38.941 31.4133L38.9165 30.9674L38.7882 30.506L38.4825 30.3976L38.3695 30.6577L38.1861 30.6082C38.4681 30.1986 38.7136 29.7645 38.9196 29.3108L39.2252 29.1746L39.4024 28.933L39.488 29.0321L39.7019 28.772L39.5308 28.5553L39.6867 28.5119L39.9739 28.6296H40.5149L40.8419 28.4562L41.6976 28.227L41.5356 27.9391L41.4806 27.5892L41.939 27.7935L42.1101 27.6914L42.0246 27.3322L41.4714 27.5582L40.8602 27.4282L40.3896 26.4528H43.0698C42.9545 29.4732 41.7509 32.3461 39.6867 34.5283L39.3199 34.1536L39.4788 33.6551L39.1916 32.5559L38.6078 33.4414ZM39.0815 40.3682L39.4116 39.6498L39.2832 39.3402L39.7692 38.9067V38.6465L39.3535 38.3834L39.6958 37.6928L40.2092 37.0116L39.6958 36.4512H39.3108L39.0724 36.0579C39.2771 35.8845 39.4819 35.708 39.6836 35.5222L42.1621 38.0335C41.2281 38.931 40.1943 39.7155 39.0815 40.3713V40.3682ZM42.1743 37.055L42.4494 36.7453L42.1896 35.3705L42.0124 35.2993L42.1224 35.0671L41.5356 34.8813L41.4225 35.3705L41.3645 35.9898L41.2422 36.1044L40.1726 35.0206C42.3666 32.7081 43.6437 29.6583 43.7604 26.4528H47.2658C47.15 30.6008 45.5034 34.554 42.6511 37.5318L42.1743 37.055ZM43.1401 38.0304C46.122 34.9209 47.8421 30.7898 47.9595 26.4559H51.4618C51.3451 31.7315 49.2567 36.7656 45.6186 40.5416L43.1401 38.0304ZM22.0529 34.5902C21.7992 34.3239 21.5578 34.0483 21.3255 33.7604L21.4325 32.8624L21.0627 32.0016L20.971 30.6546L20.5554 29.8372L20.641 29.3294L20.1398 28.354L19.7027 28.1311L19.88 27.6139L19.6997 27.2052L19.88 26.7377H20.3598L20.5279 26.4559H21.3469L21.4722 26.7005L21.3194 27.5582L21.2216 27.7037L21.5272 28.3819L21.3255 28.4933L21.185 28.3137L21.1238 28.3819L21.2644 28.7844L21.5059 29.2551H21.6189L21.6984 28.7968L21.5823 28.642V28.3571L21.5456 27.7688L21.6984 26.7346L21.5334 26.4559H22.1201C22.2335 28.5632 23.0891 30.5595 24.5314 32.0821L22.0529 34.5902ZM19.7302 27.6511L19.4002 28.1775H18.8318L18.7859 28.1434C18.6895 27.5856 18.6303 27.0218 18.6087 26.4559H19.663L19.4094 27.3105L19.7302 27.6511ZM20.8824 25.2142L20.9466 24.5082L21.3622 24.2636L22.1048 24.3967L22.2179 24.533C22.1508 24.9363 22.113 25.3441 22.1048 25.753H21.2644L20.8824 25.2142ZM24.4489 27.8679L24.6231 27.7781L25.0601 28.128L24.8615 28.2921L25.3779 28.6389L25.3657 28.2673L25.6408 27.8059L25.928 28.1156L26.2337 28.5429L25.6713 28.6605L25.9128 29.1498L26.2825 28.9516L26.2459 28.7968L26.5209 28.6079L26.6829 27.8338C26.8832 28.2878 27.1546 28.7061 27.4867 29.0724L25.0112 31.5805C23.7973 30.2932 23.0349 28.6372 22.8414 26.8677L23.3487 27.4158H23.8254L24.4489 27.8679ZM21.9001 17.5072L24.3755 20.0184C23.8568 20.5964 23.415 21.2408 23.0614 21.9351H22.8903L22.5419 22.0435H22.4196L22.0498 22.3934L22.5174 22.2943L22.9392 22.1859L22.8658 22.35L22.496 22.5791H22.3096L21.7656 23.0003L21.24 22.9569L20.479 24.3937L20.6287 24.6816L20.2162 25.1461L20.152 25.7654H18.5995C18.6482 22.6926 19.825 19.7485 21.9001 17.5072ZM18.7003 36.4419L19.4858 36.9094L19.6477 37.0209L19.0793 37.5969C18.8144 37.3182 18.5577 37.0302 18.3092 36.733L18.7003 36.4419ZM17.9149 26.4559C17.9149 26.7996 17.9577 27.1433 17.9944 27.4808L17.5665 27.5799L17.4779 28.0196L16.5855 29.1715L16.6069 30.7537L15.6901 31.0634H15.1889C14.7141 29.5718 14.4506 28.0194 14.4065 26.4528L17.9149 26.4559ZM14.4554 31.0448L14.2506 31.0045L14.0581 30.7847L13.074 30.698L13.3797 31.116L12.4628 30.9426L12.7012 30.7197L12.4781 30.4967L11.821 30.7878L11.5857 31.2275L11.6774 32.24L12.4353 34.0607L12.799 34.6367L13.0068 34.7141L12.4353 33.6148L12.31 33.0544L12.4384 32.9181L12.3589 32.6085L12.7043 32.6549L13.233 33.4662L13.3644 33.5189V32.9274L13.5783 33.0544L13.6241 33.364L14.1804 33.5127L14.4126 33.3455L14.4921 33.4012V33.8316L14.7366 34.1412L15.0422 34.2094L15.6901 35.321L16.0843 35.4324L16.2066 34.9122C16.8893 36.0553 17.6994 37.115 18.6209 38.0706L16.1454 40.5787C12.4662 36.8073 10.3438 31.757 10.2105 26.4559H13.7158C13.7573 28.0123 14.006 29.5559 14.4554 31.0448V31.0448ZM15.9835 11.497L18.4589 14.0051C15.4647 17.1705 13.7674 21.369 13.7097 25.753H10.2074C10.2594 20.4298 12.3207 15.3287 15.9682 11.497H15.9835ZM41.3492 10.2027L41.1383 9.85588L40.6799 9.62365L40.3223 9.89923L40.7807 10.1469L41.2728 10.5278L41.3492 10.2027ZM39.2068 20.2197V20.4921L39.8181 20.3095L40.0045 19.9348L39.5858 19.3774L39.8089 19.0368L40.3743 19.4455L40.4782 19.3619L40.3651 19.2814L40.2368 19.0337L40.469 18.8975L40.2429 18.5878L39.7111 18.8603L39.5338 19.1978L39.4269 19.492L39.6622 19.8914L39.5766 20.0772L39.2068 20.2197ZM13.8717 36.1415L13.9175 35.9805L13.6119 35.2869L13.2391 35.1476L13.8717 36.1415ZM28.1987 22.8021C28.1987 23.3966 28.5563 23.8177 29.2072 24.18C29.2072 24.18 29.2072 24.0778 29.2072 23.9137L28.7977 23.4988L29.0147 23.0993L29.192 23.0498C29.192 22.3562 29.1645 21.579 29.1614 21.4675H29.1308C28.5257 21.8081 28.1987 22.2169 28.1987 22.8021Z"
    fill="#fff" />
  <path
    d="M32.1113 38.1847C33.2115 38.7483 34.2262 39.5286 34.651 41.0056C34.8374 38.5594 33.4835 37.5004 32.1419 36.7852C32.1419 36.7883 32.1113 38.1878 32.1113 38.1847Z"
    fill="#fff" />
  <path
    d="M39.4239 13.376C39.4239 11.1558 37.8347 8.69108 33.9381 7.82098C33.5452 7.74894 33.1481 7.7024 32.7493 7.68164C32.7493 8.01606 32.7249 8.78397 32.7249 8.78397C32.7249 9.02549 32.7004 9.91417 32.6943 10.1062C32.946 10.1238 33.1961 10.159 33.4431 10.2114C35.7076 10.7595 36.5175 12.0693 36.5175 13.376C36.5175 15.4847 34.7388 16.2804 32.5446 16.8812L31.8203 17.0731C31.1571 17.2403 30.4756 17.4014 29.8002 17.584C29.5587 17.6491 29.3204 17.7203 29.082 17.7915C26.6585 18.5408 24.5742 19.7237 24.5742 22.7458C24.5742 25.7679 26.9519 26.8765 29.2715 27.601C29.2572 26.7361 29.2409 25.867 29.2226 24.9938C28.1988 24.5077 27.4775 23.8667 27.4775 22.7892C27.4775 21.7116 28.1346 21.0985 29.14 20.6217C29.3631 20.5195 29.6015 20.4266 29.8552 20.3399C30.4328 20.1417 31.0776 19.9714 31.7652 19.8042L32.4895 19.6277C35.7565 18.8536 39.4239 17.8163 39.4239 13.376Z"
    fill="#fff" />
  <path
    d="M27.6758 34.5776C27.6758 35.7914 28.5621 36.4355 29.4453 36.9526C29.4453 36.7482 29.4086 34.8687 29.4086 34.8377C29.4269 34.463 29.7845 34.237 30.0748 34.0977C30.5328 33.8924 31.001 33.7115 31.4776 33.5558C31.7404 33.4629 31.9635 33.3731 32.2141 33.2988C33.9867 32.7569 36.0373 32.0602 36.0373 29.8927C36.0373 27.7252 34.28 26.7963 32.37 26.1367C32.37 26.8334 32.3364 27.8521 32.3211 28.555C33.134 28.8647 33.6719 29.2703 33.6719 29.8927C33.6719 30.6761 32.8467 31.1313 32.263 31.3542C32.0185 31.4502 31.6518 31.5741 31.5448 31.6081C31.0742 31.7568 30.5669 31.9178 30.0932 32.1036C29.8483 32.1931 29.6085 32.2965 29.375 32.4132C28.5315 32.8405 27.6727 33.4691 27.6758 34.5776Z"
    fill="#fff" />
  <path
    d="M28.8768 8.0293C28.1411 8.26373 27.4256 8.55888 26.7375 8.91178C25.9735 9.16879 24.9039 9.22143 23.7823 10.4414C23.4194 10.864 23.0797 11.3064 22.7646 11.7667C22.4284 12.2559 22.4132 13.0424 22.1534 13.4666C21.7989 14.0859 21.8844 14.4296 21.8844 14.4296V14.4482C21.8187 14.7369 21.6772 15.0022 21.4749 15.2161C21.3071 15.4288 21.0876 15.5937 20.8379 15.6947C20.5883 15.7956 20.3171 15.8292 20.0508 15.7921C20.5581 16.0491 21.2732 15.6899 21.2732 15.6899C21.1649 16.0252 21.0751 16.3663 21.0043 16.7117C21.5727 15.4081 22.0953 14.9313 22.2573 14.7981C22.5018 14.8538 23.0091 14.8322 23.9504 14.2841C25.0139 13.6648 26.6122 12.6585 27.0646 12.0206C27.5415 11.3664 28.1954 10.8663 28.9471 10.5808C28.9135 9.59919 28.8952 8.75077 28.8768 8.0293ZM24.3905 12.1011L23.8373 12.2219L24.4974 11.1474L25.2676 11.1722L24.3905 12.1011Z"
    fill="#fff" />
  <path
    d="M31.0741 34.4261C30.9702 34.4633 30.7043 34.5778 30.5362 34.6367C30.3681 34.6955 30.1328 34.7946 30.1328 34.8565C30.1328 34.9184 30.304 44.2728 30.304 44.4802C30.304 46.4155 31.2758 46.4279 31.2758 44.4802C31.2758 44.3409 31.4714 34.293 31.4714 34.293C31.4714 34.293 31.2391 34.3704 31.0741 34.4261Z"
    fill="#fff" />
  <path
    d="M30.0667 31.3241C30.3723 31.2188 30.6779 31.1259 30.953 31.0361L31.5428 30.8503C31.5428 30.2589 31.72 22.0781 31.7506 20.5918C31.115 20.7409 30.4877 20.9238 29.8711 21.1399C29.8925 22.2546 30.0514 30.4323 30.0667 31.3241Z"
    fill="#fff" />
  <path
    d="M30.8661 0C28.1339 0 29.2952 4.10588 29.5122 5.44354C29.5122 5.50856 29.7323 14.7328 29.7751 16.8353C30.1907 16.7239 30.6033 16.6217 30.9975 16.5257L31.8227 16.3151C31.8624 14.2808 32.0641 5.4776 32.0702 5.43115C32.2505 3.9975 33.6808 0 30.8661 0Z"
    fill="#fff" />
</svg>